<svg width="38" height="28" viewBox="0 0 38 28" fill="none" xmlns="http://www.w3.org/2000/svg">
<path d="M17.3334 27.3334H9.83341C7.30564 27.3334 5.14619 26.4584 3.35508 24.7084C1.56286 22.9584 0.666748 20.8195 0.666748 18.2917C0.666748 16.1251 1.31953 14.1945 2.62508 12.5001C3.93064 10.8056 5.63897 9.7223 7.75008 9.25008C8.44453 6.69453 9.83341 4.62508 11.9167 3.04175C14.0001 1.45842 16.3612 0.666748 19.0001 0.666748C22.2501 0.666748 25.0067 1.79841 27.2701 4.06175C29.5345 6.32619 30.6667 9.08341 30.6667 12.3334C32.5834 12.5556 34.174 13.3817 35.4384 14.8117C36.7017 16.2429 37.3334 17.9167 37.3334 19.8334C37.3334 21.9167 36.6045 23.6879 35.1467 25.1467C33.6879 26.6045 31.9167 27.3334 29.8334 27.3334H20.6667V15.4167L23.3334 18.0001L25.6667 15.6667L19.0001 9.00008L12.3334 15.6667L14.6667 18.0001L17.3334 15.4167V27.3334Z" fill="#0C1B2E"/>
</svg>
